<svg width="2000" height="1080" viewBox="0 0 2000 1080" fill="none" xmlns="http://www.w3.org/2000/svg">
<g clip-path="url(#clip0)">
<rect width="2000" height="1080" fill="url(#paint0_linear)"/>
<rect x="40" width="1920" height="1080" fill="url(#paint1_linear)"/>
<rect x="625" width="2" height="1080" fill="url(#paint2_linear)"/>
<rect x="616" width="2" height="1080" fill="url(#paint3_linear)"/>
<rect x="606" width="2" height="1080" fill="url(#paint4_linear)"/>
<rect x="40" y="78" width="2" height="1920" transform="rotate(-90 40 78)" fill="url(#paint5_linear)"/>
<rect x="40" y="87" width="2" height="1920" transform="rotate(-90 40 87)" fill="url(#paint6_linear)"/>
<rect x="40" y="97" width="2" height="1920" transform="rotate(-90 40 97)" fill="url(#paint7_linear)"/>
<g clip-path="url(#clip1)">
<g filter="url(#filter0_d)">
<path fill-rule="evenodd" clip-rule="evenodd" d="M41 993L73 1020C105 1047 170 1101 234 1128C298 1155 363 1155 427 1124C491 1093 556 1031 620 996C684 962 749 954 781 950L813 946V1155H781C749 1155 684 1155 620 1155C556 1155 491 1155 427 1155C363 1155 298 1155 234 1155C170 1155 105 1155 73 1155H41V993Z" fill="url(#paint8_linear)"/>
<path fill-rule="evenodd" clip-rule="evenodd" d="M41 955L73 982C105 1009 170 1063 234 1090C298 1117 363 1117 427 1086C491 1055 556 993 620 958C684 924 749 916 781 912L813 908V1117H781C749 1117 684 1117 620 1117C556 1117 491 1117 427 1117C363 1117 298 1117 234 1117C170 1117 105 1117 73 1117H41V955Z" fill="url(#paint9_linear)"/>
<path fill-rule="evenodd" clip-rule="evenodd" d="M813 946.667H863C913 946.667 1013 946.667 1113 868.889C1213 791.111 1313 635.556 1413 613.333C1513 591.111 1613 702.222 1713 702.222C1813 702.222 1913 591.111 1963 535.556L2013 480V1080H1963C1913 1080 1813 1080 1713 1080C1613 1080 1513 1080 1413 1080C1313 1080 1213 1080 1113 1080C1013 1080 913 1080 863 1080H813V946.667Z" fill="url(#paint10_linear)"/>
<path fill-rule="evenodd" clip-rule="evenodd" d="M813 908.333H888.208C963.417 908.333 1113.83 908.333 1264.25 791.278C1414.67 674.222 1565.08 440.111 1715.5 406.667C1865.92 373.222 2016.33 540.444 2166.75 540.444C2317.17 540.444 2467.58 373.222 2542.79 289.611L2618 206V1109H2542.79C2467.58 1109 2317.17 1109 2166.75 1109C2016.33 1109 1865.92 1109 1715.5 1109C1565.08 1109 1414.67 1109 1264.25 1109C1113.83 1109 963.417 1109 888.208 1109H813V908.333Z" fill="url(#paint11_linear)"/>
</g>
<g filter="url(#filter1_d)">
<circle r="7.5" transform="matrix(0.727497 0.686111 0.686111 -0.727497 54.5685 1027.5)" fill="url(#paint12_linear)"/>
</g>
<g filter="url(#filter2_d)">
<circle r="7.5" transform="matrix(0.727497 0.686111 0.686111 -0.727497 75.5062 1048.61)" fill="url(#paint13_linear)"/>
</g>
<g filter="url(#filter3_d)">
<circle r="7.5" transform="matrix(0.727497 0.686111 0.686111 -0.727497 95.6002 1066.67)" fill="url(#paint14_linear)"/>
</g>
<g filter="url(#filter4_d)">
<path fill-rule="evenodd" clip-rule="evenodd" d="M1614.97 1192.34C1507.88 1248.44 1374.88 1291.72 1287.32 1208.37C1196.12 1121.55 1212.86 977.512 1273.18 866.982C1327.04 768.282 1435.54 717.861 1547.03 732.454C1667.51 748.224 1788.12 816.499 1805.87 936.707C1823.06 1053.02 1719.12 1137.78 1614.97 1192.34Z" fill="url(#paint15_linear)"/>
</g>
<g filter="url(#filter5_d)">
<path fill-rule="evenodd" clip-rule="evenodd" d="M1623.64 567.661C1676.8 563.489 1722.97 597.639 1768.12 625.571C1810.35 651.697 1854.31 678.609 1875.25 723.325C1896.07 767.771 1884.95 817.812 1881.05 866.709C1876.61 922.278 1892.29 989.143 1850.98 1027.16C1809.66 1065.18 1743.31 1042.39 1687.03 1045.25C1636.55 1047.81 1585.1 1063.66 1539.14 1043.01C1491.53 1021.61 1460.55 977.242 1435.12 932.052C1408.18 884.159 1380.29 831.964 1390.01 777.907C1399.75 723.693 1445.01 684.78 1486.22 647.69C1526.54 611.413 1569.38 571.918 1623.64 567.661Z" fill="url(#paint16_linear)"/>
</g>
<path d="M837.988 1106.31C932.662 1022.83 995.714 1004.45 1123.28 1014.65C1276.67 1013.13 1346.23 998.866 1409.98 924.16C1464.73 834.432 1503.39 786.741 1791.76 773.74C1862.52 777.345 1902.96 775.236 1981.6 736.434" stroke="#FA6800" stroke-width="2" stroke-linecap="round" stroke-linejoin="round"/>
<g filter="url(#filter6_d)">
<circle cx="1114.33" cy="1015.13" r="11" transform="rotate(112.492 1114.33 1015.13)" stroke="url(#paint17_linear)" stroke-width="3"/>
</g>
<g filter="url(#filter7_d)">
<circle cx="1150.47" cy="1013.89" r="13.5" transform="rotate(112.492 1150.47 1013.89)" stroke="url(#paint18_linear)" stroke-width="3"/>
</g>
<g filter="url(#filter8_d)">
<circle cx="1196.2" cy="1014.24" r="16" transform="rotate(112.492 1196.2 1014.24)" stroke="url(#paint19_linear)" stroke-width="3"/>
</g>
<g filter="url(#filter9_d)">
<circle r="14" transform="matrix(0.316024 0.948751 0.948751 -0.316024 1780 776)" stroke="url(#paint20_linear)" stroke-width="2"/>
</g>
<g filter="url(#filter10_d)">
<circle cx="1921" cy="762" r="15" fill="url(#paint21_linear)"/>
</g>
<g filter="url(#filter11_d)">
<circle cx="1497" cy="831" r="40" fill="url(#paint22_linear)"/>
<circle cx="1497" cy="831" r="39" stroke="url(#paint23_linear)" stroke-width="2"/>
</g>
<path d="M-39 589.298C416.833 417.408 848.39 828.736 1217.91 498.941C1382.44 314.913 1731.74 166.565 1961 257.538" stroke="url(#paint24_linear)" stroke-linecap="round" stroke-linejoin="round"/>
<path d="M-39 569.298C416.833 397.408 848.39 808.736 1217.91 478.941C1382.44 294.913 1731.74 146.565 1961 237.538" stroke="url(#paint25_linear)" stroke-linecap="round" stroke-linejoin="round"/>
<path d="M-39 549.298C416.833 377.408 848.39 788.736 1217.91 458.941C1382.44 274.913 1731.74 126.565 1961 217.538" stroke="url(#paint26_linear)" stroke-linecap="round" stroke-linejoin="round"/>
<path d="M-39 529.298C416.833 357.408 848.39 768.736 1217.91 438.941C1382.44 254.913 1731.74 106.565 1961 197.538" stroke="url(#paint27_linear)" stroke-linecap="round" stroke-linejoin="round"/>
<path d="M-39 509.298C416.833 337.408 848.39 748.736 1217.91 418.941C1382.44 234.913 1731.74 86.5647 1961 177.538" stroke="url(#paint28_linear)" stroke-linecap="round" stroke-linejoin="round"/>
<path d="M-39 489.298C416.833 317.408 848.39 728.736 1217.91 398.941C1382.44 214.913 1731.74 66.5647 1961 157.538" stroke="url(#paint29_linear)" stroke-linecap="round" stroke-linejoin="round"/>
<path d="M-39 469.298C416.833 297.408 848.39 708.736 1217.91 378.941C1382.44 194.913 1731.74 46.5647 1961 137.538" stroke="url(#paint30_linear)" stroke-linecap="round" stroke-linejoin="round"/>
<path d="M-39 449.298C416.833 277.408 848.39 688.736 1217.91 358.941C1382.44 174.913 1731.74 26.5647 1961 117.538" stroke="url(#paint31_linear)" stroke-linecap="round" stroke-linejoin="round"/>
<path d="M-39 429.298C416.833 257.408 848.39 668.736 1217.91 338.941C1382.44 154.913 1731.74 6.56474 1961 97.5382" stroke="url(#paint32_linear)" stroke-linecap="round" stroke-linejoin="round"/>
<path d="M-39 409.298C416.833 237.408 848.39 648.736 1217.91 318.941C1382.44 134.913 1731.74 -13.4353 1961 77.5382" stroke="url(#paint33_linear)" stroke-linecap="round" stroke-linejoin="round"/>
<path d="M-39 389.298C416.833 217.408 848.39 628.736 1217.91 298.941C1382.44 114.913 1731.74 -33.4353 1961 57.5382" stroke="url(#paint34_linear)" stroke-linecap="round" stroke-linejoin="round"/>
<g filter="url(#filter12_d)">
<circle cx="1620" cy="96" r="40" fill="url(#paint35_linear)"/>
</g>
<g filter="url(#filter13_d)">
<circle cx="1830" cy="191" r="50" fill="url(#paint36_linear)"/>
<circle cx="1830" cy="191" r="49" stroke="url(#paint37_linear)" stroke-width="2"/>
</g>
<g filter="url(#filter14_d)">
<circle cx="397" cy="501" r="50" fill="url(#paint38_linear)"/>
<circle cx="397" cy="501" r="49" stroke="url(#paint39_linear)" stroke-width="2"/>
</g>
<g filter="url(#filter15_d)">
<circle cx="172" cy="384" r="30" fill="url(#paint40_linear)"/>
<circle cx="172" cy="384" r="29" stroke="url(#paint41_linear)" stroke-width="2"/>
</g>
</g>
<rect x="500" y="183" width="1000" height="550" rx="5" fill="url(#paint42_linear)" fill-opacity="0.8"/>
<rect x="875" y="643" width="250" height="80" rx="10" fill="#1F324E"/>
<path d="M919.54 686.08C919.401 687.992 918.693 689.498 917.416 690.596C916.146 691.695 914.47 692.244 912.386 692.244C910.108 692.244 908.313 691.479 907.003 689.949C905.701 688.411 905.05 686.303 905.05 683.626V682.54C905.05 680.831 905.351 679.325 905.953 678.023C906.555 676.721 907.414 675.724 908.529 675.032C909.652 674.332 910.954 673.982 912.435 673.982C914.486 673.982 916.138 674.532 917.391 675.63C918.644 676.729 919.369 678.271 919.564 680.257H915.902C915.812 679.109 915.491 678.279 914.938 677.767C914.392 677.246 913.558 676.985 912.435 676.985C911.214 676.985 910.299 677.425 909.688 678.304C909.086 679.174 908.777 680.529 908.761 682.369V683.711C908.761 685.632 909.05 687.036 909.627 687.923C910.213 688.81 911.133 689.253 912.386 689.253C913.517 689.253 914.36 688.997 914.913 688.484C915.475 687.964 915.796 687.162 915.877 686.08H919.54ZM926.856 689.058H934.632V692H923.194V674.227H926.856V689.058ZM948.688 684.297H941.656V689.058H949.908V692H937.994V674.227H949.884V677.193H941.656V681.429H948.688V684.297ZM963.341 688.338H956.92L955.699 692H951.805L958.421 674.227H961.815L968.468 692H964.574L963.341 688.338ZM957.909 685.372H962.352L960.118 678.719L957.909 685.372ZM977.958 685.494H975.04V692H971.378V674.227H977.982C980.082 674.227 981.701 674.694 982.84 675.63C983.98 676.566 984.549 677.889 984.549 679.598C984.549 680.81 984.285 681.823 983.756 682.637C983.235 683.443 982.442 684.086 981.375 684.566L985.221 691.829V692H981.29L977.958 685.494ZM975.04 682.527H977.994C978.914 682.527 979.626 682.295 980.13 681.832C980.635 681.36 980.887 680.713 980.887 679.891C980.887 679.052 980.647 678.393 980.167 677.913C979.695 677.433 978.967 677.193 977.982 677.193H975.04V682.527ZM996.07 692V674.227H1001.54C1003.1 674.227 1004.5 674.581 1005.73 675.289C1006.96 675.988 1007.93 676.989 1008.62 678.292C1009.31 679.585 1009.66 681.058 1009.66 682.71V683.528C1009.66 685.18 1009.31 686.649 1008.63 687.935C1007.96 689.221 1007 690.218 1005.76 690.926C1004.53 691.634 1003.13 691.992 1001.58 692H996.07ZM999.732 677.193V689.058H1001.5C1002.93 689.058 1004.03 688.59 1004.79 687.654C1005.54 686.718 1005.93 685.38 1005.95 683.638V682.698C1005.95 680.892 1005.57 679.524 1004.82 678.597C1004.07 677.661 1002.98 677.193 1001.54 677.193H999.732ZM1028.18 683.516C1028.18 685.266 1027.87 686.8 1027.25 688.118C1026.63 689.437 1025.75 690.454 1024.59 691.17C1023.44 691.886 1022.12 692.244 1020.64 692.244C1019.16 692.244 1017.85 691.89 1016.69 691.182C1015.54 690.474 1014.64 689.465 1014.01 688.155C1013.37 686.836 1013.05 685.323 1013.04 683.614V682.735C1013.04 680.985 1013.36 679.447 1013.98 678.121C1014.62 676.786 1015.51 675.765 1016.66 675.057C1017.81 674.34 1019.13 673.982 1020.61 673.982C1022.09 673.982 1023.41 674.34 1024.55 675.057C1025.71 675.765 1026.6 676.786 1027.23 678.121C1027.86 679.447 1028.18 680.981 1028.18 682.723V683.516ZM1024.47 682.71C1024.47 680.847 1024.14 679.431 1023.47 678.462C1022.8 677.494 1021.85 677.01 1020.61 677.01C1019.38 677.01 1018.43 677.49 1017.77 678.45C1017.1 679.402 1016.76 680.802 1016.75 682.649V683.516C1016.75 685.331 1017.09 686.739 1017.75 687.74C1018.42 688.741 1019.38 689.241 1020.64 689.241C1021.86 689.241 1022.81 688.761 1023.47 687.801C1024.13 686.832 1024.46 685.424 1024.47 683.577V682.71ZM1046.04 686.08C1045.91 687.992 1045.2 689.498 1043.92 690.596C1042.65 691.695 1040.97 692.244 1038.89 692.244C1036.61 692.244 1034.82 691.479 1033.51 689.949C1032.2 688.411 1031.55 686.303 1031.55 683.626V682.54C1031.55 680.831 1031.85 679.325 1032.46 678.023C1033.06 676.721 1033.92 675.724 1035.03 675.032C1036.16 674.332 1037.46 673.982 1038.94 673.982C1040.99 673.982 1042.64 674.532 1043.9 675.63C1045.15 676.729 1045.87 678.271 1046.07 680.257H1042.41C1042.32 679.109 1041.99 678.279 1041.44 677.767C1040.9 677.246 1040.06 676.985 1038.94 676.985C1037.72 676.985 1036.8 677.425 1036.19 678.304C1035.59 679.174 1035.28 680.529 1035.26 682.369V683.711C1035.26 685.632 1035.55 687.036 1036.13 687.923C1036.72 688.81 1037.64 689.253 1038.89 689.253C1040.02 689.253 1040.86 688.997 1041.42 688.484C1041.98 687.964 1042.3 687.162 1042.38 686.08H1046.04ZM1055.26 684.871L1053.36 686.922V692H1049.7V674.227H1053.36V682.283L1054.97 680.074L1059.5 674.227H1064L1057.69 682.125L1064.19 692H1059.83L1055.26 684.871ZM1077.51 684.297H1070.48V689.058H1078.73V692H1066.82V674.227H1078.71V677.193H1070.48V681.429H1077.51V684.297ZM1095.75 677.193H1090.31V692H1086.65V677.193H1081.28V674.227H1095.75V677.193Z" fill="white"/>
<g filter="url(#filter16_dd)">
<rect x="575" y="511" width="850" height="80" rx="5" fill="#FA6800" fill-opacity="0.5"/>
</g>
<rect x="1360" y="527" width="50" height="50" rx="2" fill="white"/>
<path d="M1375.56 561.656C1375.56 562.278 1375.81 562.874 1376.25 563.314C1376.69 563.753 1377.28 564 1377.91 564H1391.97C1392.59 564 1393.19 563.753 1393.63 563.314C1394.07 562.874 1394.31 562.278 1394.31 561.656V545.25H1375.56V561.656ZM1388.84 549.156C1388.84 548.949 1388.93 548.75 1389.07 548.604C1389.22 548.457 1389.42 548.375 1389.62 548.375C1389.83 548.375 1390.03 548.457 1390.18 548.604C1390.32 548.75 1390.41 548.949 1390.41 549.156V560.094C1390.41 560.301 1390.32 560.5 1390.18 560.646C1390.03 560.793 1389.83 560.875 1389.62 560.875C1389.42 560.875 1389.22 560.793 1389.07 560.646C1388.93 560.5 1388.84 560.301 1388.84 560.094V549.156ZM1384.16 549.156C1384.16 548.949 1384.24 548.75 1384.39 548.604C1384.53 548.457 1384.73 548.375 1384.94 548.375C1385.14 548.375 1385.34 548.457 1385.49 548.604C1385.64 548.75 1385.72 548.949 1385.72 549.156V560.094C1385.72 560.301 1385.64 560.5 1385.49 560.646C1385.34 560.793 1385.14 560.875 1384.94 560.875C1384.73 560.875 1384.53 560.793 1384.39 560.646C1384.24 560.5 1384.16 560.301 1384.16 560.094V549.156ZM1379.47 549.156C1379.47 548.949 1379.55 548.75 1379.7 548.604C1379.84 548.457 1380.04 548.375 1380.25 548.375C1380.46 548.375 1380.66 548.457 1380.8 548.604C1380.95 548.75 1381.03 548.949 1381.03 549.156V560.094C1381.03 560.301 1380.95 560.5 1380.8 560.646C1380.66 560.793 1380.46 560.875 1380.25 560.875C1380.04 560.875 1379.84 560.793 1379.7 560.646C1379.55 560.5 1379.47 560.301 1379.47 560.094V549.156ZM1395.09 540.563H1389.23L1388.78 539.649C1388.68 539.454 1388.53 539.29 1388.34 539.175C1388.16 539.061 1387.94 539 1387.73 539H1382.14C1381.93 538.999 1381.71 539.06 1381.53 539.175C1381.34 539.289 1381.2 539.454 1381.1 539.649L1380.64 540.563H1374.78C1374.57 540.563 1374.38 540.645 1374.23 540.791C1374.08 540.938 1374 541.137 1374 541.344V542.906C1374 543.113 1374.08 543.312 1374.23 543.459C1374.38 543.605 1374.57 543.688 1374.78 543.688H1395.09C1395.3 543.688 1395.5 543.605 1395.65 543.459C1395.79 543.312 1395.88 543.113 1395.88 542.906V541.344C1395.88 541.137 1395.79 540.938 1395.65 540.791C1395.5 540.645 1395.3 540.563 1395.09 540.563Z" fill="#871111"/>
<rect x="1290" y="527" width="50" height="50" rx="2" fill="white" fill-opacity="0.8"/>
<path d="M1322.74 543.074L1327.16 547.495C1327.34 547.681 1327.34 547.985 1327.16 548.172L1316.45 558.877L1311.9 559.382C1311.29 559.451 1310.78 558.936 1310.85 558.328L1311.35 553.779L1322.06 543.074C1322.25 542.887 1322.55 542.887 1322.74 543.074ZM1330.68 541.951L1328.28 539.559C1327.54 538.814 1326.33 538.814 1325.58 539.559L1323.84 541.294C1323.66 541.48 1323.66 541.784 1323.84 541.971L1328.26 546.392C1328.45 546.578 1328.75 546.578 1328.94 546.392L1330.68 544.657C1331.42 543.907 1331.42 542.696 1330.68 541.951ZM1321.82 555.966V560.956H1306.14V545.27H1317.4C1317.56 545.27 1317.71 545.206 1317.82 545.098L1319.78 543.137C1320.15 542.765 1319.89 542.132 1319.36 542.132H1305.35C1304.05 542.132 1303 543.186 1303 544.485V561.74C1303 563.039 1304.05 564.093 1305.35 564.093H1322.61C1323.91 564.093 1324.96 563.039 1324.96 561.74V554.005C1324.96 553.48 1324.33 553.221 1323.96 553.588L1322 555.549C1321.89 555.662 1321.82 555.809 1321.82 555.966Z" fill="#1F324E" fill-opacity="0.5"/>
<rect x="590" y="526" width="50" height="50" rx="2" fill="white"/>
<path d="M625.321 564H605.679C604.199 564 603 562.801 603 561.321V541.679C603 540.199 604.199 539 605.679 539H625.321C626.801 539 628 540.199 628 541.679V561.321C628 562.801 626.801 564 625.321 564ZM613.899 558.528L624.167 548.26C624.516 547.911 624.516 547.346 624.167 546.997L622.904 545.735C622.556 545.386 621.99 545.386 621.642 545.735L613.268 554.109L609.358 550.199C609.01 549.85 608.444 549.85 608.096 550.199L606.833 551.462C606.484 551.81 606.484 552.376 606.833 552.724L612.636 558.528C612.985 558.877 613.551 558.877 613.899 558.528Z" fill="#1F324E"/>
<path d="M675.007 562H660.388V559.1L667.287 551.746C668.234 550.711 668.933 549.808 669.382 549.036C669.841 548.265 670.07 547.532 670.07 546.839C670.07 545.892 669.831 545.149 669.353 544.612C668.874 544.065 668.19 543.792 667.302 543.792C666.345 543.792 665.588 544.124 665.031 544.788C664.484 545.442 664.211 546.307 664.211 547.381H659.963C659.963 546.082 660.271 544.896 660.886 543.821C661.511 542.747 662.39 541.907 663.522 541.302C664.655 540.687 665.939 540.379 667.375 540.379C669.572 540.379 671.276 540.906 672.487 541.961C673.708 543.016 674.318 544.505 674.318 546.429C674.318 547.483 674.045 548.558 673.498 549.651C672.951 550.745 672.014 552.02 670.686 553.475L665.837 558.587H675.007V562ZM679.51 559.92C679.51 559.246 679.734 558.699 680.184 558.279C680.643 557.859 681.214 557.649 681.897 557.649C682.591 557.649 683.162 557.859 683.611 558.279C684.07 558.699 684.3 559.246 684.3 559.92C684.3 560.584 684.075 561.126 683.626 561.546C683.177 561.956 682.601 562.161 681.897 562.161C681.204 562.161 680.633 561.956 680.184 561.546C679.734 561.126 679.51 560.584 679.51 559.92ZM715.645 559.305C714.854 560.252 713.735 560.989 712.29 561.517C710.845 562.034 709.243 562.293 707.485 562.293C705.64 562.293 704.019 561.893 702.622 561.092C701.235 560.281 700.161 559.109 699.399 557.576C698.647 556.043 698.262 554.241 698.242 552.171V550.721C698.242 548.592 698.599 546.751 699.312 545.198C700.034 543.636 701.069 542.444 702.417 541.624C703.774 540.794 705.361 540.379 707.178 540.379C709.707 540.379 711.685 540.984 713.11 542.195C714.536 543.396 715.381 545.149 715.645 547.454H711.367C711.172 546.233 710.737 545.34 710.063 544.773C709.399 544.207 708.481 543.924 707.31 543.924C705.815 543.924 704.678 544.485 703.896 545.608C703.115 546.731 702.72 548.401 702.71 550.618V551.98C702.71 554.217 703.135 555.906 703.984 557.049C704.834 558.191 706.079 558.763 707.72 558.763C709.37 558.763 710.547 558.411 711.25 557.708V554.031H707.251V550.794H715.645V559.305ZM719.781 553.929C719.781 552.356 720.084 550.955 720.689 549.725C721.295 548.494 722.164 547.542 723.297 546.868C724.439 546.194 725.763 545.857 727.267 545.857C729.405 545.857 731.148 546.512 732.496 547.82C733.854 549.129 734.61 550.906 734.767 553.152L734.796 554.236C734.796 556.668 734.117 558.621 732.76 560.096C731.402 561.561 729.581 562.293 727.296 562.293C725.011 562.293 723.185 561.561 721.817 560.096C720.46 558.631 719.781 556.639 719.781 554.119V553.929ZM724.015 554.236C724.015 555.74 724.298 556.893 724.864 557.693C725.431 558.484 726.241 558.88 727.296 558.88C728.321 558.88 729.122 558.489 729.698 557.708C730.274 556.917 730.562 555.657 730.562 553.929C730.562 552.454 730.274 551.312 729.698 550.501C729.122 549.69 728.312 549.285 727.267 549.285C726.231 549.285 725.431 549.69 724.864 550.501C724.298 551.302 724.015 552.547 724.015 554.236ZM752.942 542.254V546.15H755.652V549.256H752.942V557.166C752.942 557.752 753.055 558.172 753.279 558.426C753.504 558.68 753.934 558.807 754.568 558.807C755.037 558.807 755.452 558.772 755.813 558.704V561.912C754.983 562.166 754.129 562.293 753.25 562.293C750.281 562.293 748.768 560.794 748.709 557.796V549.256H746.395V546.15H748.709V542.254H752.942ZM758.412 553.929C758.412 552.356 758.715 550.955 759.32 549.725C759.926 548.494 760.795 547.542 761.928 546.868C763.07 546.194 764.394 545.857 765.897 545.857C768.036 545.857 769.779 546.512 771.127 547.82C772.484 549.129 773.241 550.906 773.397 553.152L773.427 554.236C773.427 556.668 772.748 558.621 771.391 560.096C770.033 561.561 768.212 562.293 765.927 562.293C763.642 562.293 761.815 561.561 760.448 560.096C759.091 558.631 758.412 556.639 758.412 554.119V553.929ZM762.646 554.236C762.646 555.74 762.929 556.893 763.495 557.693C764.062 558.484 764.872 558.88 765.927 558.88C766.952 558.88 767.753 558.489 768.329 557.708C768.905 556.917 769.193 555.657 769.193 553.929C769.193 552.454 768.905 551.312 768.329 550.501C767.753 549.69 766.942 549.285 765.897 549.285C764.862 549.285 764.062 549.69 763.495 550.501C762.929 551.302 762.646 552.547 762.646 554.236ZM785.89 553.958C785.89 551.526 786.466 549.568 787.618 548.084C788.78 546.6 790.343 545.857 792.306 545.857C794.044 545.857 795.396 546.453 796.363 547.645L796.539 546.15H800.377V561.473C800.377 562.859 800.06 564.065 799.425 565.091C798.8 566.116 797.916 566.897 796.773 567.435C795.631 567.972 794.293 568.24 792.76 568.24C791.598 568.24 790.465 568.006 789.361 567.537C788.258 567.078 787.423 566.482 786.856 565.75L788.731 563.172C789.786 564.354 791.065 564.944 792.569 564.944C793.692 564.944 794.566 564.642 795.191 564.036C795.816 563.44 796.129 562.591 796.129 561.487V560.638C795.152 561.741 793.868 562.293 792.276 562.293C790.372 562.293 788.829 561.551 787.647 560.066C786.476 558.572 785.89 556.595 785.89 554.134V553.958ZM790.123 554.266C790.123 555.701 790.411 556.829 790.987 557.649C791.563 558.46 792.354 558.865 793.36 558.865C794.649 558.865 795.572 558.382 796.129 557.415V550.75C795.562 549.783 794.649 549.3 793.39 549.3C792.374 549.3 791.573 549.715 790.987 550.545C790.411 551.375 790.123 552.615 790.123 554.266ZM811.062 556.009L813.991 546.15H818.532L812.16 564.461L811.809 565.296C810.861 567.366 809.299 568.401 807.121 568.401C806.506 568.401 805.881 568.309 805.246 568.123V564.915L805.891 564.93C806.691 564.93 807.287 564.808 807.678 564.563C808.078 564.319 808.391 563.914 808.615 563.348L809.113 562.044L803.562 546.15H808.117L811.062 556.009ZM825.672 546.15L825.804 547.923C826.927 546.546 828.445 545.857 830.359 545.857C832.4 545.857 833.802 546.663 834.563 548.274C835.677 546.663 837.264 545.857 839.324 545.857C841.043 545.857 842.322 546.36 843.162 547.366C844.002 548.362 844.422 549.866 844.422 551.878V562H840.174V551.893C840.174 550.994 839.998 550.34 839.646 549.93C839.295 549.51 838.675 549.3 837.786 549.3C836.517 549.3 835.638 549.905 835.149 551.116L835.164 562H830.931V551.907C830.931 550.989 830.75 550.325 830.389 549.915C830.027 549.505 829.412 549.3 828.543 549.3C827.342 549.3 826.473 549.798 825.936 550.794V562H821.702V546.15H825.672Z" fill="#C4C4C4"/>
<path d="M658.938 554.5H846.048V555.994H658.938V554.5Z" fill="#C4C4C4"/>
<g filter="url(#filter17_dd)">
<rect x="575" y="387" width="850" height="80" rx="5" fill="#FA6800" fill-opacity="0.5"/>
</g>
<rect x="1360" y="403" width="50" height="50" rx="2" fill="white"/>
<path d="M1375.56 437.656C1375.56 438.278 1375.81 438.874 1376.25 439.314C1376.69 439.753 1377.28 440 1377.91 440H1391.97C1392.59 440 1393.19 439.753 1393.63 439.314C1394.07 438.874 1394.31 438.278 1394.31 437.656V421.25H1375.56V437.656ZM1388.84 425.156C1388.84 424.949 1388.93 424.75 1389.07 424.604C1389.22 424.457 1389.42 424.375 1389.62 424.375C1389.83 424.375 1390.03 424.457 1390.18 424.604C1390.32 424.75 1390.41 424.949 1390.41 425.156V436.094C1390.41 436.301 1390.32 436.5 1390.18 436.646C1390.03 436.793 1389.83 436.875 1389.62 436.875C1389.42 436.875 1389.22 436.793 1389.07 436.646C1388.93 436.5 1388.84 436.301 1388.84 436.094V425.156ZM1384.16 425.156C1384.16 424.949 1384.24 424.75 1384.39 424.604C1384.53 424.457 1384.73 424.375 1384.94 424.375C1385.14 424.375 1385.34 424.457 1385.49 424.604C1385.64 424.75 1385.72 424.949 1385.72 425.156V436.094C1385.72 436.301 1385.64 436.5 1385.49 436.646C1385.34 436.793 1385.14 436.875 1384.94 436.875C1384.73 436.875 1384.53 436.793 1384.39 436.646C1384.24 436.5 1384.16 436.301 1384.16 436.094V425.156ZM1379.47 425.156C1379.47 424.949 1379.55 424.75 1379.7 424.604C1379.84 424.457 1380.04 424.375 1380.25 424.375C1380.46 424.375 1380.66 424.457 1380.8 424.604C1380.95 424.75 1381.03 424.949 1381.03 425.156V436.094C1381.03 436.301 1380.95 436.5 1380.8 436.646C1380.66 436.793 1380.46 436.875 1380.25 436.875C1380.04 436.875 1379.84 436.793 1379.7 436.646C1379.55 436.5 1379.47 436.301 1379.47 436.094V425.156ZM1395.09 416.563H1389.23L1388.78 415.649C1388.68 415.454 1388.53 415.29 1388.34 415.175C1388.16 415.061 1387.94 415 1387.73 415H1382.14C1381.93 414.999 1381.71 415.06 1381.53 415.175C1381.34 415.289 1381.2 415.454 1381.1 415.649L1380.64 416.563H1374.78C1374.57 416.563 1374.38 416.645 1374.23 416.791C1374.08 416.938 1374 417.137 1374 417.344V418.906C1374 419.113 1374.08 419.312 1374.23 419.459C1374.38 419.605 1374.57 419.688 1374.78 419.688H1395.09C1395.3 419.688 1395.5 419.605 1395.65 419.459C1395.79 419.312 1395.88 419.113 1395.88 418.906V417.344C1395.88 417.137 1395.79 416.938 1395.65 416.791C1395.5 416.645 1395.3 416.563 1395.09 416.563Z" fill="#871111"/>
<rect x="1290" y="403" width="50" height="50" rx="2" fill="white"/>
<path d="M1322.74 419.074L1327.16 423.495C1327.34 423.681 1327.34 423.985 1327.16 424.172L1316.45 434.877L1311.9 435.382C1311.29 435.451 1310.78 434.936 1310.85 434.328L1311.35 429.779L1322.06 419.074C1322.25 418.887 1322.55 418.887 1322.74 419.074ZM1330.68 417.951L1328.28 415.559C1327.54 414.814 1326.33 414.814 1325.58 415.559L1323.84 417.294C1323.66 417.48 1323.66 417.784 1323.84 417.971L1328.26 422.392C1328.45 422.578 1328.75 422.578 1328.94 422.392L1330.68 420.657C1331.42 419.907 1331.42 418.696 1330.68 417.951ZM1321.82 431.966V436.956H1306.14V421.27H1317.4C1317.56 421.27 1317.71 421.206 1317.82 421.098L1319.78 419.137C1320.15 418.765 1319.89 418.132 1319.36 418.132H1305.35C1304.05 418.132 1303 419.186 1303 420.485V437.74C1303 439.039 1304.05 440.093 1305.35 440.093H1322.61C1323.91 440.093 1324.96 439.039 1324.96 437.74V430.005C1324.96 429.48 1324.33 429.221 1323.96 429.588L1322 431.549C1321.89 431.662 1321.82 431.809 1321.82 431.966Z" fill="#0E6812"/>
<rect x="590" y="402" width="50" height="50" rx="2" fill="white"/>
<path d="M623.915 417.778V437.222H605.614V417.778H623.915ZM623.915 415H605.614C604.176 415 603 416.25 603 417.778V437.222C603 438.75 604.176 440 605.614 440H623.915C625.353 440 626.529 438.75 626.529 437.222V417.778C626.529 416.25 625.353 415 623.915 415Z" fill="black"/>
<path d="M670.671 438H666.438V421.682L661.384 423.249V419.807L670.217 416.643H670.671V438ZM679.51 435.92C679.51 435.246 679.734 434.699 680.184 434.279C680.643 433.859 681.214 433.649 681.897 433.649C682.591 433.649 683.162 433.859 683.611 434.279C684.07 434.699 684.3 435.246 684.3 435.92C684.3 436.584 684.075 437.126 683.626 437.546C683.177 437.956 682.601 438.161 681.897 438.161C681.204 438.161 680.633 437.956 680.184 437.546C679.734 437.126 679.51 436.584 679.51 435.92ZM715.645 435.305C714.854 436.252 713.735 436.989 712.29 437.517C710.845 438.034 709.243 438.293 707.485 438.293C705.64 438.293 704.019 437.893 702.622 437.092C701.235 436.281 700.161 435.109 699.399 433.576C698.647 432.043 698.262 430.241 698.242 428.171V426.721C698.242 424.592 698.599 422.751 699.312 421.198C700.034 419.636 701.069 418.444 702.417 417.624C703.774 416.794 705.361 416.379 707.178 416.379C709.707 416.379 711.685 416.984 713.11 418.195C714.536 419.396 715.381 421.149 715.645 423.454H711.367C711.172 422.233 710.737 421.34 710.063 420.773C709.399 420.207 708.481 419.924 707.31 419.924C705.815 419.924 704.678 420.485 703.896 421.608C703.115 422.731 702.72 424.401 702.71 426.618V427.98C702.71 430.217 703.135 431.906 703.984 433.049C704.834 434.191 706.079 434.763 707.72 434.763C709.37 434.763 710.547 434.411 711.25 433.708V430.031H707.251V426.794H715.645V435.305ZM719.781 429.929C719.781 428.356 720.084 426.955 720.689 425.725C721.295 424.494 722.164 423.542 723.297 422.868C724.439 422.194 725.763 421.857 727.267 421.857C729.405 421.857 731.148 422.512 732.496 423.82C733.854 425.129 734.61 426.906 734.767 429.152L734.796 430.236C734.796 432.668 734.117 434.621 732.76 436.096C731.402 437.561 729.581 438.293 727.296 438.293C725.011 438.293 723.185 437.561 721.817 436.096C720.46 434.631 719.781 432.639 719.781 430.119V429.929ZM724.015 430.236C724.015 431.74 724.298 432.893 724.864 433.693C725.431 434.484 726.241 434.88 727.296 434.88C728.321 434.88 729.122 434.489 729.698 433.708C730.274 432.917 730.562 431.657 730.562 429.929C730.562 428.454 730.274 427.312 729.698 426.501C729.122 425.69 728.312 425.285 727.267 425.285C726.231 425.285 725.431 425.69 724.864 426.501C724.298 427.302 724.015 428.547 724.015 430.236ZM752.942 418.254V422.15H755.652V425.256H752.942V433.166C752.942 433.752 753.055 434.172 753.279 434.426C753.504 434.68 753.934 434.807 754.568 434.807C755.037 434.807 755.452 434.772 755.813 434.704V437.912C754.983 438.166 754.129 438.293 753.25 438.293C750.281 438.293 748.768 436.794 748.709 433.796V425.256H746.395V422.15H748.709V418.254H752.942ZM758.412 429.929C758.412 428.356 758.715 426.955 759.32 425.725C759.926 424.494 760.795 423.542 761.928 422.868C763.07 422.194 764.394 421.857 765.897 421.857C768.036 421.857 769.779 422.512 771.127 423.82C772.484 425.129 773.241 426.906 773.397 429.152L773.427 430.236C773.427 432.668 772.748 434.621 771.391 436.096C770.033 437.561 768.212 438.293 765.927 438.293C763.642 438.293 761.815 437.561 760.448 436.096C759.091 434.631 758.412 432.639 758.412 430.119V429.929ZM762.646 430.236C762.646 431.74 762.929 432.893 763.495 433.693C764.062 434.484 764.872 434.88 765.927 434.88C766.952 434.88 767.753 434.489 768.329 433.708C768.905 432.917 769.193 431.657 769.193 429.929C769.193 428.454 768.905 427.312 768.329 426.501C767.753 425.69 766.942 425.285 765.897 425.285C764.862 425.285 764.062 425.69 763.495 426.501C762.929 427.302 762.646 428.547 762.646 430.236ZM785.89 429.958C785.89 427.526 786.466 425.568 787.618 424.084C788.78 422.6 790.343 421.857 792.306 421.857C794.044 421.857 795.396 422.453 796.363 423.645L796.539 422.15H800.377V437.473C800.377 438.859 800.06 440.065 799.425 441.091C798.8 442.116 797.916 442.897 796.773 443.435C795.631 443.972 794.293 444.24 792.76 444.24C791.598 444.24 790.465 444.006 789.361 443.537C788.258 443.078 787.423 442.482 786.856 441.75L788.731 439.172C789.786 440.354 791.065 440.944 792.569 440.944C793.692 440.944 794.566 440.642 795.191 440.036C795.816 439.44 796.129 438.591 796.129 437.487V436.638C795.152 437.741 793.868 438.293 792.276 438.293C790.372 438.293 788.829 437.551 787.647 436.066C786.476 434.572 785.89 432.595 785.89 430.134V429.958ZM790.123 430.266C790.123 431.701 790.411 432.829 790.987 433.649C791.563 434.46 792.354 434.865 793.36 434.865C794.649 434.865 795.572 434.382 796.129 433.415V426.75C795.562 425.783 794.649 425.3 793.39 425.3C792.374 425.3 791.573 425.715 790.987 426.545C790.411 427.375 790.123 428.615 790.123 430.266ZM811.062 432.009L813.991 422.15H818.532L812.16 440.461L811.809 441.296C810.861 443.366 809.299 444.401 807.121 444.401C806.506 444.401 805.881 444.309 805.246 444.123V440.915L805.891 440.93C806.691 440.93 807.287 440.808 807.678 440.563C808.078 440.319 808.391 439.914 808.615 439.348L809.113 438.044L803.562 422.15H808.117L811.062 432.009ZM825.672 422.15L825.804 423.923C826.927 422.546 828.445 421.857 830.359 421.857C832.4 421.857 833.802 422.663 834.563 424.274C835.677 422.663 837.264 421.857 839.324 421.857C841.043 421.857 842.322 422.36 843.162 423.366C844.002 424.362 844.422 425.866 844.422 427.878V438H840.174V427.893C840.174 426.994 839.998 426.34 839.646 425.93C839.295 425.51 838.675 425.3 837.786 425.3C836.517 425.3 835.638 425.905 835.149 427.116L835.164 438H830.931V427.907C830.931 426.989 830.75 426.325 830.389 425.915C830.027 425.505 829.412 425.3 828.543 425.3C827.342 425.3 826.473 425.798 825.936 426.794V438H821.702V422.15H825.672Z" fill="white"/>
<g filter="url(#filter18_dd)">
<rect x="575" y="213" width="850" height="96" rx="5" fill="#1F324E" fill-opacity="0.1"/>
<path d="M585 226C585 223.239 587.239 221 590 221H1215V301H590C587.239 301 585 298.761 585 296V226Z" fill="white"/>
<path d="M615.921 269.293C613.597 269.293 611.702 268.58 610.237 267.154C608.782 265.729 608.055 263.829 608.055 261.456V261.046C608.055 259.454 608.362 258.033 608.978 256.783C609.593 255.523 610.462 254.557 611.585 253.883C612.718 253.199 614.007 252.857 615.452 252.857C617.62 252.857 619.324 253.541 620.564 254.908C621.814 256.275 622.439 258.214 622.439 260.724V262.452H612.347C612.483 263.487 612.894 264.317 613.577 264.942C614.271 265.567 615.145 265.88 616.199 265.88C617.83 265.88 619.104 265.289 620.022 264.107L622.103 266.437C621.468 267.335 620.608 268.038 619.524 268.546C618.44 269.044 617.239 269.293 615.921 269.293ZM615.438 256.285C614.598 256.285 613.914 256.568 613.387 257.135C612.869 257.701 612.537 258.512 612.391 259.566H618.279V259.23C618.26 258.292 618.006 257.569 617.518 257.062C617.029 256.544 616.336 256.285 615.438 256.285ZM626.576 266.92C626.576 266.246 626.801 265.699 627.25 265.279C627.709 264.859 628.28 264.649 628.964 264.649C629.657 264.649 630.229 264.859 630.678 265.279C631.137 265.699 631.366 266.246 631.366 266.92C631.366 267.584 631.142 268.126 630.692 268.546C630.243 268.956 629.667 269.161 628.964 269.161C628.271 269.161 627.699 268.956 627.25 268.546C626.801 268.126 626.576 267.584 626.576 266.92ZM635.972 260.958C635.972 258.526 636.548 256.568 637.7 255.084C638.862 253.6 640.425 252.857 642.388 252.857C644.126 252.857 645.479 253.453 646.445 254.645L646.621 253.15H650.459V268.473C650.459 269.859 650.142 271.065 649.507 272.091C648.882 273.116 647.998 273.897 646.855 274.435C645.713 274.972 644.375 275.24 642.842 275.24C641.68 275.24 640.547 275.006 639.443 274.537C638.34 274.078 637.505 273.482 636.938 272.75L638.813 270.172C639.868 271.354 641.147 271.944 642.651 271.944C643.774 271.944 644.648 271.642 645.273 271.036C645.898 270.44 646.211 269.591 646.211 268.487V267.638C645.234 268.741 643.95 269.293 642.358 269.293C640.454 269.293 638.911 268.551 637.729 267.066C636.558 265.572 635.972 263.595 635.972 261.134V260.958ZM640.205 261.266C640.205 262.701 640.493 263.829 641.069 264.649C641.646 265.46 642.437 265.865 643.442 265.865C644.731 265.865 645.654 265.382 646.211 264.415V257.75C645.645 256.783 644.731 256.3 643.472 256.3C642.456 256.3 641.655 256.715 641.069 257.545C640.493 258.375 640.205 259.615 640.205 261.266ZM655.445 266.92C655.445 266.246 655.67 265.699 656.119 265.279C656.578 264.859 657.149 264.649 657.833 264.649C658.526 264.649 659.098 264.859 659.547 265.279C660.006 265.699 660.235 266.246 660.235 266.92C660.235 267.584 660.011 268.126 659.562 268.546C659.112 268.956 658.536 269.161 657.833 269.161C657.14 269.161 656.568 268.956 656.119 268.546C655.67 268.126 655.445 267.584 655.445 266.92ZM691.58 266.305C690.789 267.252 689.671 267.989 688.226 268.517C686.78 269.034 685.179 269.293 683.421 269.293C681.575 269.293 679.954 268.893 678.558 268.092C677.171 267.281 676.097 266.109 675.335 264.576C674.583 263.043 674.197 261.241 674.178 259.171V257.721C674.178 255.592 674.534 253.751 675.247 252.198C675.97 250.636 677.005 249.444 678.353 248.624C679.71 247.794 681.297 247.379 683.113 247.379C685.643 247.379 687.62 247.984 689.046 249.195C690.472 250.396 691.316 252.149 691.58 254.454H687.303C687.107 253.233 686.673 252.34 685.999 251.773C685.335 251.207 684.417 250.924 683.245 250.924C681.751 250.924 680.613 251.485 679.832 252.608C679.051 253.731 678.655 255.401 678.646 257.618V258.98C678.646 261.217 679.07 262.906 679.92 264.049C680.77 265.191 682.015 265.763 683.655 265.763C685.306 265.763 686.482 265.411 687.186 264.708V261.031H683.187V257.794H691.58V266.305ZM695.717 260.929C695.717 259.356 696.02 257.955 696.625 256.725C697.23 255.494 698.1 254.542 699.232 253.868C700.375 253.194 701.698 252.857 703.202 252.857C705.341 252.857 707.084 253.512 708.432 254.82C709.789 256.129 710.546 257.906 710.702 260.152L710.731 261.236C710.731 263.668 710.053 265.621 708.695 267.096C707.338 268.561 705.517 269.293 703.231 269.293C700.946 269.293 699.12 268.561 697.753 267.096C696.396 265.631 695.717 263.639 695.717 261.119V260.929ZM699.95 261.236C699.95 262.74 700.233 263.893 700.8 264.693C701.366 265.484 702.177 265.88 703.231 265.88C704.257 265.88 705.058 265.489 705.634 264.708C706.21 263.917 706.498 262.657 706.498 260.929C706.498 259.454 706.21 258.312 705.634 257.501C705.058 256.69 704.247 256.285 703.202 256.285C702.167 256.285 701.366 256.69 700.8 257.501C700.233 258.302 699.95 259.547 699.95 261.236ZM728.878 249.254V253.15H731.588V256.256H728.878V264.166C728.878 264.752 728.99 265.172 729.215 265.426C729.439 265.68 729.869 265.807 730.504 265.807C730.973 265.807 731.388 265.772 731.749 265.704V268.912C730.919 269.166 730.064 269.293 729.186 269.293C726.217 269.293 724.703 267.794 724.645 264.796V256.256H722.33V253.15H724.645V249.254H728.878ZM734.348 260.929C734.348 259.356 734.65 257.955 735.256 256.725C735.861 255.494 736.73 254.542 737.863 253.868C739.006 253.194 740.329 252.857 741.833 252.857C743.972 252.857 745.715 253.512 747.062 254.82C748.42 256.129 749.177 257.906 749.333 260.152L749.362 261.236C749.362 263.668 748.684 265.621 747.326 267.096C745.969 268.561 744.147 269.293 741.862 269.293C739.577 269.293 737.751 268.561 736.384 267.096C735.026 265.631 734.348 263.639 734.348 261.119V260.929ZM738.581 261.236C738.581 262.74 738.864 263.893 739.431 264.693C739.997 265.484 740.808 265.88 741.862 265.88C742.888 265.88 743.688 265.489 744.265 264.708C744.841 263.917 745.129 262.657 745.129 260.929C745.129 259.454 744.841 258.312 744.265 257.501C743.688 256.69 742.878 256.285 741.833 256.285C740.798 256.285 739.997 256.69 739.431 257.501C738.864 258.302 738.581 259.547 738.581 261.236ZM761.825 260.958C761.825 258.526 762.401 256.568 763.554 255.084C764.716 253.6 766.278 252.857 768.241 252.857C769.979 252.857 771.332 253.453 772.299 254.645L772.475 253.15H776.312V268.473C776.312 269.859 775.995 271.065 775.36 272.091C774.735 273.116 773.852 273.897 772.709 274.435C771.566 274.972 770.229 275.24 768.695 275.24C767.533 275.24 766.4 275.006 765.297 274.537C764.193 274.078 763.358 273.482 762.792 272.75L764.667 270.172C765.722 271.354 767.001 271.944 768.505 271.944C769.628 271.944 770.502 271.642 771.127 271.036C771.752 270.44 772.064 269.591 772.064 268.487V267.638C771.088 268.741 769.804 269.293 768.212 269.293C766.308 269.293 764.765 268.551 763.583 267.066C762.411 265.572 761.825 263.595 761.825 261.134V260.958ZM766.059 261.266C766.059 262.701 766.347 263.829 766.923 264.649C767.499 265.46 768.29 265.865 769.296 265.865C770.585 265.865 771.508 265.382 772.064 264.415V257.75C771.498 256.783 770.585 256.3 769.325 256.3C768.31 256.3 767.509 256.715 766.923 257.545C766.347 258.375 766.059 259.615 766.059 261.266ZM786.997 263.009L789.927 253.15H794.468L788.096 271.461L787.744 272.296C786.797 274.366 785.234 275.401 783.057 275.401C782.441 275.401 781.816 275.309 781.182 275.123V271.915L781.826 271.93C782.627 271.93 783.223 271.808 783.613 271.563C784.014 271.319 784.326 270.914 784.551 270.348L785.049 269.044L779.497 253.15H784.053L786.997 263.009ZM801.607 253.15L801.739 254.923C802.862 253.546 804.381 252.857 806.295 252.857C808.336 252.857 809.737 253.663 810.499 255.274C811.612 253.663 813.199 252.857 815.26 252.857C816.979 252.857 818.258 253.36 819.098 254.366C819.938 255.362 820.357 256.866 820.357 258.878V269H816.109V258.893C816.109 257.994 815.934 257.34 815.582 256.93C815.23 256.51 814.61 256.3 813.722 256.3C812.452 256.3 811.573 256.905 811.085 258.116L811.1 269H806.866V258.907C806.866 257.989 806.686 257.325 806.324 256.915C805.963 256.505 805.348 256.3 804.479 256.3C803.277 256.3 802.408 256.798 801.871 257.794V269H797.638V253.15H801.607Z" fill="#1F324E" fill-opacity="0.79"/>
<path d="M1215 221H1410C1412.76 221 1415 223.239 1415 226V296C1415 298.761 1412.76 301 1410 301H1215V221Z" fill="#1F324E"/>
<path d="M1325.95 267.605H1318.24L1316.78 272H1312.1L1320.04 250.672H1324.11L1332.1 272H1327.42L1325.95 267.605ZM1319.43 264.046H1324.76L1322.08 256.063L1319.43 264.046ZM1335.59 272V250.672H1342.15C1344.03 250.672 1345.7 251.097 1347.18 251.946C1348.66 252.786 1349.82 253.987 1350.65 255.55C1351.48 257.103 1351.89 258.87 1351.89 260.853V261.834C1351.89 263.816 1351.48 265.579 1350.66 267.122C1349.85 268.665 1348.71 269.861 1347.22 270.711C1345.74 271.561 1344.06 271.99 1342.2 272H1335.59ZM1339.98 254.231V268.47H1342.11C1343.83 268.47 1345.14 267.908 1346.05 266.785C1346.96 265.662 1347.42 264.056 1347.44 261.966V260.838C1347.44 258.67 1346.99 257.029 1346.09 255.916C1345.19 254.793 1343.88 254.231 1342.15 254.231H1339.98ZM1356.6 272V250.672H1363.16C1365.04 250.672 1366.71 251.097 1368.19 251.946C1369.67 252.786 1370.83 253.987 1371.66 255.55C1372.49 257.103 1372.91 258.87 1372.91 260.853V261.834C1372.91 263.816 1372.5 265.579 1371.67 267.122C1370.86 268.665 1369.72 269.861 1368.23 270.711C1366.75 271.561 1365.07 271.99 1363.21 272H1356.6ZM1361 254.231V268.47H1363.12C1364.84 268.47 1366.15 267.908 1367.06 266.785C1367.97 265.662 1368.43 264.056 1368.45 261.966V260.838C1368.45 258.67 1368 257.029 1367.1 255.916C1366.21 254.793 1364.89 254.231 1363.16 254.231H1361Z" fill="white"/>
<path d="M1287.5 253.5H1284.5V259.5H1278.5V262.5H1284.5V268.5H1287.5V262.5H1293.5V259.5H1287.5V253.5ZM1286 246C1277.72 246 1271 252.72 1271 261C1271 269.28 1277.72 276 1286 276C1294.28 276 1301 269.28 1301 261C1301 252.72 1294.28 246 1286 246ZM1286 273C1279.39 273 1274 267.615 1274 261C1274 254.385 1279.39 249 1286 249C1292.61 249 1298 254.385 1298 261C1298 267.615 1292.61 273 1286 273Z" fill="white"/>
</g>
<path fill-rule="evenodd" clip-rule="evenodd" d="M1444.29 101.752C1479.48 61.678 1536.38 53.9475 1588.22 42.4703C1636.7 31.7349 1686.97 20.3543 1733.17 37.7894C1779.09 55.1192 1806.03 98.7283 1837.34 136.491C1872.91 179.407 1930.79 216.383 1927.7 272.436C1924.62 328.503 1861.18 358.45 1822.84 399.76C1788.46 436.81 1762.65 484.046 1715.31 501.306C1666.27 519.183 1613.12 509.003 1563.38 494.353C1510.67 478.827 1454.28 460.879 1423.53 415.368C1392.7 369.724 1397.99 310.271 1401.65 254.946C1405.23 200.834 1408.38 142.649 1444.29 101.752Z" fill="#9E0F4B" fill-opacity="0.25"/>
<path fill-rule="evenodd" clip-rule="evenodd" d="M608.558 750.613C609.304 803.938 572.258 847.813 541.482 891.074C512.696 931.538 483.015 973.68 437.045 991.704C391.353 1009.62 342.13 995.314 293.585 988.273C238.416 980.271 170.681 991.622 135.402 947.955C100.113 904.277 127.121 839.532 127.883 783.179C128.567 732.638 116.059 680.285 139.625 635.744C164.033 589.61 210.304 561.538 257.035 539.073C306.56 515.264 360.44 490.788 413.761 503.956C467.236 517.162 503.161 564.829 537.525 608.342C571.136 650.901 607.796 696.193 608.558 750.613Z" fill="#151377" fill-opacity="0.25"/>
<rect x="80" y="30" width="400" height="150" rx="10" fill="white" fill-opacity="0.8"/>
<g filter="url(#filter19_d)">
<path d="M414.053 131.32H421V123H385V131.32H398.263V155H405.842V131.32" stroke="#1F324E" stroke-width="5" stroke-linecap="square" stroke-linejoin="round"/>
<path d="M347.107 146.547H372V155H338V123H372V130.849H347.107V138.698H365.929" stroke="#1F324E" stroke-width="5" stroke-linecap="square" stroke-linejoin="round"/>
<path d="M297.636 155H290V123H298.909V134.333L311.636 123H325L298.909 145L311.636 155H325L312.909 144.333" stroke="#1F324E" stroke-width="5" stroke-linecap="square" stroke-linejoin="round"/>
<path d="M263.964 146.385H258.378C249.066 145.154 250.928 132.846 258.378 132.231H277V123H258.378C236.651 124.846 239.134 154.385 258.378 155H277V146.385H272.655" stroke="#1F324E" stroke-width="5" stroke-linecap="square" stroke-linejoin="round"/>
<path d="M223.75 138.5C223.75 143.056 220.056 146.75 215.5 146.75C210.944 146.75 207.25 143.056 207.25 138.5C207.25 133.944 210.944 130.25 215.5 130.25C220.056 130.25 223.75 133.944 223.75 138.5Z" stroke="#1F324E" stroke-width="5" stroke-linecap="square" stroke-linejoin="round"/>
<path d="M232 138.5C232 147.613 224.613 155 215.5 155C206.387 155 199 147.613 199 138.5C199 129.387 206.387 122 215.5 122C224.613 122 232 129.387 232 138.5Z" stroke="#1F324E" stroke-width="5" stroke-linecap="square" stroke-linejoin="round"/>
<path d="M161.927 138.5V147.5H174.808C181.249 144.5 181.249 133.5 174.808 131H154V155H174.808C192.644 152 192.149 125 174.808 123H154" stroke="#1F324E" stroke-width="5" stroke-linecap="square" stroke-linejoin="round"/>
</g>
<g filter="url(#filter20_d)">
<path d="M310.175 65.4462L307.635 62H299L309.667 78.7385V94H318.81V78.7385L331 62H320.841L314.746 71.8462" stroke="#1F324E" stroke-width="5" stroke-linecap="square" stroke-linejoin="round"/>
<path d="M262 94H288V85.5H262V62H270V78.5" stroke="#1F324E" stroke-width="5" stroke-linecap="square" stroke-linejoin="round"/>
<path d="M244 94H235V62H244V86" stroke="#1F324E" stroke-width="5" stroke-linecap="square" stroke-linejoin="round"/>
<path d="M207.19 84L212.62 94H222L207.19 69L192.38 94H183L201.266 62" stroke="#1F324E" stroke-width="5" stroke-linecap="square" stroke-linejoin="round"/>
<path d="M143.927 77.5V86.5H156.808C163.249 83.5 163.249 72.5 156.808 70H136V94H156.808C174.644 91 174.149 64 156.808 62H136" stroke="#1F324E" stroke-width="5" stroke-linecap="square" stroke-linejoin="round"/>
</g>
<g filter="url(#filter21_d)">
<path d="M413.791 69.5489L398 100H439.009C463.862 80.4734 464.794 56.6864 439.009 40L398 40L413.791 69.5489Z" fill="url(#paint43_radial)" fill-opacity="0.6"/>
<path d="M413.791 69.5489L398 100H439.009C463.862 80.4734 464.794 56.6864 439.009 40L398 40L413.791 69.5489Z" stroke="#1F324E" stroke-width="5" stroke-linecap="round" stroke-linejoin="round"/>
</g>
<path d="M460 141H458V126H460V141Z" fill="#1F324E"/>
<circle r="9" transform="matrix(-1 0 0 1 459 116)" fill="#1F324E" stroke="#1F324E" stroke-width="2"/>
<circle cx="459" cy="153" r="6" fill="url(#paint44_linear)"/>
<circle cx="459" cy="153" r="11" stroke="#1F324E" stroke-width="2"/>
<path d="M460 179.8H458V164.8H460V179.8Z" fill="#1F324E"/>
<circle r="11.5" transform="matrix(-1 0 0 1 368.5 96.5)" stroke="#1F324E" stroke-width="2"/>
<circle r="6.5" transform="matrix(-1 0 0 1 368.5 93.5)" stroke="#1F324E" stroke-width="2"/>
<path d="M369 86H367V66H369V86Z" fill="#1F324E"/>
<circle cx="368.5" cy="53.5" r="6.5" fill="#1F324E" stroke="#1F324E" stroke-width="2"/>
<circle cx="368.5" cy="53.5" r="11.5" stroke="#1F324E" stroke-width="2"/>
<path d="M369 41H367V31H369V41Z" fill="#1F324E"/>
<path d="M118 124H120V144H118V124Z" fill="#1F324E"/>
<circle cx="118.5" cy="156.5" r="6.5" transform="rotate(-180 118.5 156.5)" stroke="#1F324E" stroke-width="2"/>
<circle cx="118.5" cy="156.5" r="11.5" transform="rotate(-180 118.5 156.5)" stroke="#1F324E" stroke-width="2"/>
<path d="M118 169H120V179H118V169Z" fill="#1F324E"/>
<circle r="9" transform="matrix(-1 0 0 1 109 110)" stroke="#1F324E" stroke-width="2"/>
<circle r="9" transform="matrix(-1 0 0 1 117 114)" stroke="#1F324E" stroke-width="2"/>
<path d="M109 69.8H107V99.8H109V69.8Z" fill="#1F324E"/>
<circle r="6" transform="matrix(1 0 0 -1 108 57.8)" fill="url(#paint45_linear)"/>
<circle r="11" transform="matrix(1 0 0 -1 108 57.8)" stroke="#1F324E" stroke-width="2"/>
<path d="M109 31H107V46H109V31Z" fill="#1F324E"/>
<rect x="80" y="30" width="400" height="150" rx="10" stroke="#1F324E" stroke-opacity="0.5"/>
</g>
<defs>
<filter id="filter0_d" x="34" y="199" width="2587" height="959" filterUnits="userSpaceOnUse" color-interpolation-filters="sRGB">
<feFlood flood-opacity="0" result="BackgroundImageFix"/>
<feColorMatrix in="SourceAlpha" type="matrix" values="0 0 0 0 0 0 0 0 0 0 0 0 0 0 0 0 0 0 127 0"/>
<feOffset dx="-2" dy="-2"/>
<feGaussianBlur stdDeviation="2.5"/>
<feColorMatrix type="matrix" values="0 0 0 0 0 0 0 0 0 0 0 0 0 0 0 0 0 0 0.25 0"/>
<feBlend mode="normal" in2="BackgroundImageFix" result="effect1_dropShadow"/>
<feBlend mode="normal" in="SourceGraphic" in2="effect1_dropShadow" result="shape"/>
</filter>
<filter id="filter1_d" x="43.0685" y="1020" width="23" height="23" filterUnits="userSpaceOnUse" color-interpolation-filters="sRGB">
<feFlood flood-opacity="0" result="BackgroundImageFix"/>
<feColorMatrix in="SourceAlpha" type="matrix" values="0 0 0 0 0 0 0 0 0 0 0 0 0 0 0 0 0 0 127 0"/>
<feOffset dy="4"/>
<feGaussianBlur stdDeviation="2"/>
<feColorMatrix type="matrix" values="0 0 0 0 0 0 0 0 0 0 0 0 0 0 0 0 0 0 0.25 0"/>
<feBlend mode="normal" in2="BackgroundImageFix" result="effect1_dropShadow"/>
<feBlend mode="normal" in="SourceGraphic" in2="effect1_dropShadow" result="shape"/>
</filter>
<filter id="filter2_d" x="64.0062" y="1041.11" width="23" height="23" filterUnits="userSpaceOnUse" color-interpolation-filters="sRGB">
<feFlood flood-opacity="0" result="BackgroundImageFix"/>
<feColorMatrix in="SourceAlpha" type="matrix" values="0 0 0 0 0 0 0 0 0 0 0 0 0 0 0 0 0 0 127 0"/>
<feOffset dy="4"/>
<feGaussianBlur stdDeviation="2"/>
<feColorMatrix type="matrix" values="0 0 0 0 0 0 0 0 0 0 0 0 0 0 0 0 0 0 0.25 0"/>
<feBlend mode="normal" in2="BackgroundImageFix" result="effect1_dropShadow"/>
<feBlend mode="normal" in="SourceGraphic" in2="effect1_dropShadow" result="shape"/>
</filter>
<filter id="filter3_d" x="84.1002" y="1059.17" width="23" height="23" filterUnits="userSpaceOnUse" color-interpolation-filters="sRGB">
<feFlood flood-opacity="0" result="BackgroundImageFix"/>
<feColorMatrix in="SourceAlpha" type="matrix" values="0 0 0 0 0 0 0 0 0 0 0 0 0 0 0 0 0 0 127 0"/>
<feOffset dy="4"/>
<feGaussianBlur stdDeviation="2"/>
<feColorMatrix type="matrix" values="0 0 0 0 0 0 0 0 0 0 0 0 0 0 0 0 0 0 0.25 0"/>
<feBlend mode="normal" in2="BackgroundImageFix" result="effect1_dropShadow"/>
<feBlend mode="normal" in="SourceGraphic" in2="effect1_dropShadow" result="shape"/>
</filter>
<filter id="filter4_d" x="1220.42" y="726.973" width="594.325" height="534.92" filterUnits="userSpaceOnUse" color-interpolation-filters="sRGB">
<feFlood flood-opacity="0" result="BackgroundImageFix"/>
<feColorMatrix in="SourceAlpha" type="matrix" values="0 0 0 0 0 0 0 0 0 0 0 0 0 0 0 0 0 0 127 0"/>
<feOffset dx="2" dy="2"/>
<feGaussianBlur stdDeviation="2.5"/>
<feColorMatrix type="matrix" values="0 0 0 0 0 0 0 0 0 0 0 0 0 0 0 0 0 0 0.25 0"/>
<feBlend mode="normal" in2="BackgroundImageFix" result="effect1_dropShadow"/>
<feBlend mode="normal" in="SourceGraphic" in2="effect1_dropShadow" result="shape"/>
</filter>
<filter id="filter5_d" x="1357.54" y="533.614" width="571.441" height="571.441" filterUnits="userSpaceOnUse" color-interpolation-filters="sRGB">
<feFlood flood-opacity="0" result="BackgroundImageFix"/>
<feColorMatrix in="SourceAlpha" type="matrix" values="0 0 0 0 0 0 0 0 0 0 0 0 0 0 0 0 0 0 127 0"/>
<feOffset dx="2" dy="2"/>
<feGaussianBlur stdDeviation="2.5"/>
<feColorMatrix type="matrix" values="0 0 0 0 0 0 0 0 0 0 0 0 0 0 0 0 0 0 0.25 0"/>
<feBlend mode="normal" in2="BackgroundImageFix" result="effect1_dropShadow"/>
<feBlend mode="normal" in="SourceGraphic" in2="effect1_dropShadow" result="shape"/>
</filter>
<filter id="filter6_d" x="1097.83" y="1002.63" width="33.0065" height="33.0065" filterUnits="userSpaceOnUse" color-interpolation-filters="sRGB">
<feFlood flood-opacity="0" result="BackgroundImageFix"/>
<feColorMatrix in="SourceAlpha" type="matrix" values="0 0 0 0 0 0 0 0 0 0 0 0 0 0 0 0 0 0 127 0"/>
<feOffset dy="4"/>
<feGaussianBlur stdDeviation="2"/>
<feColorMatrix type="matrix" values="0 0 0 0 0 0 0 0 0 0 0 0 0 0 0 0 0 0 0.25 0"/>
<feBlend mode="normal" in2="BackgroundImageFix" result="effect1_dropShadow"/>
<feBlend mode="normal" in="SourceGraphic" in2="effect1_dropShadow" result="shape"/>
</filter>
<filter id="filter7_d" x="1131.46" y="998.886" width="38.0079" height="38.0079" filterUnits="userSpaceOnUse" color-interpolation-filters="sRGB">
<feFlood flood-opacity="0" result="BackgroundImageFix"/>
<feColorMatrix in="SourceAlpha" type="matrix" values="0 0 0 0 0 0 0 0 0 0 0 0 0 0 0 0 0 0 127 0"/>
<feOffset dy="4"/>
<feGaussianBlur stdDeviation="2"/>
<feColorMatrix type="matrix" values="0 0 0 0 0 0 0 0 0 0 0 0 0 0 0 0 0 0 0.25 0"/>
<feBlend mode="normal" in2="BackgroundImageFix" result="effect1_dropShadow"/>
<feBlend mode="normal" in="SourceGraphic" in2="effect1_dropShadow" result="shape"/>
</filter>
<filter id="filter8_d" x="1174.7" y="996.739" width="43.0092" height="43.0092" filterUnits="userSpaceOnUse" color-interpolation-filters="sRGB">
<feFlood flood-opacity="0" result="BackgroundImageFix"/>
<feColorMatrix in="SourceAlpha" type="matrix" values="0 0 0 0 0 0 0 0 0 0 0 0 0 0 0 0 0 0 127 0"/>
<feOffset dy="4"/>
<feGaussianBlur stdDeviation="2"/>
<feColorMatrix type="matrix" values="0 0 0 0 0 0 0 0 0 0 0 0 0 0 0 0 0 0 0.25 0"/>
<feBlend mode="normal" in2="BackgroundImageFix" result="effect1_dropShadow"/>
<feBlend mode="normal" in="SourceGraphic" in2="effect1_dropShadow" result="shape"/>
</filter>
<filter id="filter9_d" x="1761" y="760.996" width="38.0081" height="38.0081" filterUnits="userSpaceOnUse" color-interpolation-filters="sRGB">
<feFlood flood-opacity="0" result="BackgroundImageFix"/>
<feColorMatrix in="SourceAlpha" type="matrix" values="0 0 0 0 0 0 0 0 0 0 0 0 0 0 0 0 0 0 127 0"/>
<feOffset dy="4"/>
<feGaussianBlur stdDeviation="2"/>
<feColorMatrix type="matrix" values="0 0 0 0 0 0 0 0 0 0 0 0 0 0 0 0 0 0 0.25 0"/>
<feBlend mode="normal" in2="BackgroundImageFix" result="effect1_dropShadow"/>
<feBlend mode="normal" in="SourceGraphic" in2="effect1_dropShadow" result="shape"/>
</filter>
<filter id="filter10_d" x="1902" y="747" width="38" height="38" filterUnits="userSpaceOnUse" color-interpolation-filters="sRGB">
<feFlood flood-opacity="0" result="BackgroundImageFix"/>
<feColorMatrix in="SourceAlpha" type="matrix" values="0 0 0 0 0 0 0 0 0 0 0 0 0 0 0 0 0 0 127 0"/>
<feOffset dy="4"/>
<feGaussianBlur stdDeviation="2"/>
<feColorMatrix type="matrix" values="0 0 0 0 0 0 0 0 0 0 0 0 0 0 0 0 0 0 0.25 0"/>
<feBlend mode="normal" in2="BackgroundImageFix" result="effect1_dropShadow"/>
<feBlend mode="normal" in="SourceGraphic" in2="effect1_dropShadow" result="shape"/>
</filter>
<filter id="filter11_d" x="1454" y="788" width="90" height="90" filterUnits="userSpaceOnUse" color-interpolation-filters="sRGB">
<feFlood flood-opacity="0" result="BackgroundImageFix"/>
<feColorMatrix in="SourceAlpha" type="matrix" values="0 0 0 0 0 0 0 0 0 0 0 0 0 0 0 0 0 0 127 0"/>
<feOffset dx="2" dy="2"/>
<feGaussianBlur stdDeviation="2.5"/>
<feColorMatrix type="matrix" values="0 0 0 0 0 0 0 0 0 0 0 0 0 0 0 0 0 0 0.25 0"/>
<feBlend mode="normal" in2="BackgroundImageFix" result="effect1_dropShadow"/>
<feBlend mode="normal" in="SourceGraphic" in2="effect1_dropShadow" result="shape"/>
</filter>
<filter id="filter12_d" x="1577" y="53" width="90" height="90" filterUnits="userSpaceOnUse" color-interpolation-filters="sRGB">
<feFlood flood-opacity="0" result="BackgroundImageFix"/>
<feColorMatrix in="SourceAlpha" type="matrix" values="0 0 0 0 0 0 0 0 0 0 0 0 0 0 0 0 0 0 127 0"/>
<feOffset dx="2" dy="2"/>
<feGaussianBlur stdDeviation="2.5"/>
<feColorMatrix type="matrix" values="0 0 0 0 0 0 0 0 0 0 0 0 0 0 0 0 0 0 0.25 0"/>
<feBlend mode="normal" in2="BackgroundImageFix" result="effect1_dropShadow"/>
<feBlend mode="normal" in="SourceGraphic" in2="effect1_dropShadow" result="shape"/>
</filter>
<filter id="filter13_d" x="1777" y="138" width="110" height="110" filterUnits="userSpaceOnUse" color-interpolation-filters="sRGB">
<feFlood flood-opacity="0" result="BackgroundImageFix"/>
<feColorMatrix in="SourceAlpha" type="matrix" values="0 0 0 0 0 0 0 0 0 0 0 0 0 0 0 0 0 0 127 0"/>
<feOffset dx="2" dy="2"/>
<feGaussianBlur stdDeviation="2.5"/>
<feColorMatrix type="matrix" values="0 0 0 0 0 0 0 0 0 0 0 0 0 0 0 0 0 0 0.25 0"/>
<feBlend mode="normal" in2="BackgroundImageFix" result="effect1_dropShadow"/>
<feBlend mode="normal" in="SourceGraphic" in2="effect1_dropShadow" result="shape"/>
</filter>
<filter id="filter14_d" x="344" y="448" width="110" height="110" filterUnits="userSpaceOnUse" color-interpolation-filters="sRGB">
<feFlood flood-opacity="0" result="BackgroundImageFix"/>
<feColorMatrix in="SourceAlpha" type="matrix" values="0 0 0 0 0 0 0 0 0 0 0 0 0 0 0 0 0 0 127 0"/>
<feOffset dx="2" dy="2"/>
<feGaussianBlur stdDeviation="2.5"/>
<feColorMatrix type="matrix" values="0 0 0 0 0 0 0 0 0 0 0 0 0 0 0 0 0 0 0.25 0"/>
<feBlend mode="normal" in2="BackgroundImageFix" result="effect1_dropShadow"/>
<feBlend mode="normal" in="SourceGraphic" in2="effect1_dropShadow" result="shape"/>
</filter>
<filter id="filter15_d" x="139" y="351" width="70" height="70" filterUnits="userSpaceOnUse" color-interpolation-filters="sRGB">
<feFlood flood-opacity="0" result="BackgroundImageFix"/>
<feColorMatrix in="SourceAlpha" type="matrix" values="0 0 0 0 0 0 0 0 0 0 0 0 0 0 0 0 0 0 127 0"/>
<feOffset dx="2" dy="2"/>
<feGaussianBlur stdDeviation="2.5"/>
<feColorMatrix type="matrix" values="0 0 0 0 0 0 0 0 0 0 0 0 0 0 0 0 0 0 0.25 0"/>
<feBlend mode="normal" in2="BackgroundImageFix" result="effect1_dropShadow"/>
<feBlend mode="normal" in="SourceGraphic" in2="effect1_dropShadow" result="shape"/>
</filter>
<filter id="filter16_dd" x="567" y="503" width="866" height="96" filterUnits="userSpaceOnUse" color-interpolation-filters="sRGB">
<feFlood flood-opacity="0" result="BackgroundImageFix"/>
<feColorMatrix in="SourceAlpha" type="matrix" values="0 0 0 0 0 0 0 0 0 0 0 0 0 0 0 0 0 0 127 0"/>
<feOffset dx="3" dy="3"/>
<feGaussianBlur stdDeviation="2.5"/>
<feColorMatrix type="matrix" values="0 0 0 0 0 0 0 0 0 0 0 0 0 0 0 0 0 0 0.25 0"/>
<feBlend mode="normal" in2="BackgroundImageFix" result="effect1_dropShadow"/>
<feColorMatrix in="SourceAlpha" type="matrix" values="0 0 0 0 0 0 0 0 0 0 0 0 0 0 0 0 0 0 127 0"/>
<feOffset dx="-3" dy="-3"/>
<feGaussianBlur stdDeviation="2.5"/>
<feColorMatrix type="matrix" values="0 0 0 0 0 0 0 0 0 0 0 0 0 0 0 0 0 0 0.25 0"/>
<feBlend mode="normal" in2="effect1_dropShadow" result="effect2_dropShadow"/>
<feBlend mode="normal" in="SourceGraphic" in2="effect2_dropShadow" result="shape"/>
</filter>
<filter id="filter17_dd" x="567" y="379" width="866" height="96" filterUnits="userSpaceOnUse" color-interpolation-filters="sRGB">
<feFlood flood-opacity="0" result="BackgroundImageFix"/>
<feColorMatrix in="SourceAlpha" type="matrix" values="0 0 0 0 0 0 0 0 0 0 0 0 0 0 0 0 0 0 127 0"/>
<feOffset dx="3" dy="3"/>
<feGaussianBlur stdDeviation="2.5"/>
<feColorMatrix type="matrix" values="0 0 0 0 0 0 0 0 0 0 0 0 0 0 0 0 0 0 0.25 0"/>
<feBlend mode="normal" in2="BackgroundImageFix" result="effect1_dropShadow"/>
<feColorMatrix in="SourceAlpha" type="matrix" values="0 0 0 0 0 0 0 0 0 0 0 0 0 0 0 0 0 0 127 0"/>
<feOffset dx="-3" dy="-3"/>
<feGaussianBlur stdDeviation="2.5"/>
<feColorMatrix type="matrix" values="0 0 0 0 0 0 0 0 0 0 0 0 0 0 0 0 0 0 0.25 0"/>
<feBlend mode="normal" in2="effect1_dropShadow" result="effect2_dropShadow"/>
<feBlend mode="normal" in="SourceGraphic" in2="effect2_dropShadow" result="shape"/>
</filter>
<filter id="filter18_dd" x="567" y="205" width="866" height="112" filterUnits="userSpaceOnUse" color-interpolation-filters="sRGB">
<feFlood flood-opacity="0" result="BackgroundImageFix"/>
<feColorMatrix in="SourceAlpha" type="matrix" values="0 0 0 0 0 0 0 0 0 0 0 0 0 0 0 0 0 0 127 0"/>
<feOffset dx="3" dy="3"/>
<feGaussianBlur stdDeviation="2.5"/>
<feColorMatrix type="matrix" values="0 0 0 0 0 0 0 0 0 0 0 0 0 0 0 0 0 0 0.25 0"/>
<feBlend mode="normal" in2="BackgroundImageFix" result="effect1_dropShadow"/>
<feColorMatrix in="SourceAlpha" type="matrix" values="0 0 0 0 0 0 0 0 0 0 0 0 0 0 0 0 0 0 127 0"/>
<feOffset dx="-3" dy="-3"/>
<feGaussianBlur stdDeviation="2.5"/>
<feColorMatrix type="matrix" values="0 0 0 0 0 0 0 0 0 0 0 0 0 0 0 0 0 0 0.25 0"/>
<feBlend mode="normal" in2="effect1_dropShadow" result="effect2_dropShadow"/>
<feBlend mode="normal" in="SourceGraphic" in2="effect2_dropShadow" result="shape"/>
</filter>
<filter id="filter19_d" x="150.5" y="118.5" width="278" height="44" filterUnits="userSpaceOnUse" color-interpolation-filters="sRGB">
<feFlood flood-opacity="0" result="BackgroundImageFix"/>
<feColorMatrix in="SourceAlpha" type="matrix" values="0 0 0 0 0 0 0 0 0 0 0 0 0 0 0 0 0 0 127 0"/>
<feOffset dx="2" dy="2"/>
<feGaussianBlur stdDeviation="1.5"/>
<feColorMatrix type="matrix" values="0 0 0 0 0 0 0 0 0 0 0 0 0 0 0 0 0 0 0.5 0"/>
<feBlend mode="normal" in2="BackgroundImageFix" result="effect1_dropShadow"/>
<feBlend mode="normal" in="SourceGraphic" in2="effect1_dropShadow" result="shape"/>
</filter>
<filter id="filter20_d" x="132.5" y="57.5895" width="206" height="43.9105" filterUnits="userSpaceOnUse" color-interpolation-filters="sRGB">
<feFlood flood-opacity="0" result="BackgroundImageFix"/>
<feColorMatrix in="SourceAlpha" type="matrix" values="0 0 0 0 0 0 0 0 0 0 0 0 0 0 0 0 0 0 127 0"/>
<feOffset dx="2" dy="2"/>
<feGaussianBlur stdDeviation="1.5"/>
<feColorMatrix type="matrix" values="0 0 0 0 0 0 0 0 0 0 0 0 0 0 0 0 0 0 0.5 0"/>
<feBlend mode="normal" in2="BackgroundImageFix" result="effect1_dropShadow"/>
<feBlend mode="normal" in="SourceGraphic" in2="effect1_dropShadow" result="shape"/>
</filter>
<filter id="filter21_d" x="392.5" y="34.5" width="75" height="75" filterUnits="userSpaceOnUse" color-interpolation-filters="sRGB">
<feFlood flood-opacity="0" result="BackgroundImageFix"/>
<feColorMatrix in="SourceAlpha" type="matrix" values="0 0 0 0 0 0 0 0 0 0 0 0 0 0 0 0 0 0 127 0"/>
<feOffset dx="2" dy="2"/>
<feGaussianBlur stdDeviation="2.5"/>
<feColorMatrix type="matrix" values="0 0 0 0 0 0 0 0 0 0 0 0 0 0 0 0 0 0 0.5 0"/>
<feBlend mode="normal" in2="BackgroundImageFix" result="effect1_dropShadow"/>
<feBlend mode="normal" in="SourceGraphic" in2="effect1_dropShadow" result="shape"/>
</filter>
<linearGradient id="paint0_linear" x1="0" y1="540" x2="2000" y2="540" gradientUnits="userSpaceOnUse">
<stop stop-color="#1F324E" stop-opacity="0.8"/>
<stop offset="0.5" stop-color="#FA6800" stop-opacity="0.3"/>
<stop offset="1" stop-color="#1F324E" stop-opacity="0.8"/>
</linearGradient>
<linearGradient id="paint1_linear" x1="40" y1="540" x2="1960" y2="540" gradientUnits="userSpaceOnUse">
<stop stop-color="#1F324E" stop-opacity="0.5"/>
<stop offset="0.516156" stop-color="#755137" stop-opacity="0.5"/>
<stop offset="0.9999" stop-color="#1F324E" stop-opacity="0.5"/>
</linearGradient>
<linearGradient id="paint2_linear" x1="626" y1="0" x2="626" y2="1080" gradientUnits="userSpaceOnUse">
<stop stop-color="white" stop-opacity="0.25"/>
<stop offset="1" stop-color="white" stop-opacity="0.25"/>
</linearGradient>
<linearGradient id="paint3_linear" x1="617" y1="0" x2="617" y2="1080" gradientUnits="userSpaceOnUse">
<stop stop-color="white" stop-opacity="0.25"/>
<stop offset="1" stop-color="white" stop-opacity="0.25"/>
</linearGradient>
<linearGradient id="paint4_linear" x1="607" y1="0" x2="607" y2="1080" gradientUnits="userSpaceOnUse">
<stop stop-color="white" stop-opacity="0.25"/>
<stop offset="1" stop-color="white" stop-opacity="0.25"/>
</linearGradient>
<linearGradient id="paint5_linear" x1="41" y1="78" x2="41" y2="1998" gradientUnits="userSpaceOnUse">
<stop stop-color="white" stop-opacity="0.25"/>
<stop offset="1" stop-color="white" stop-opacity="0.07"/>
</linearGradient>
<linearGradient id="paint6_linear" x1="41" y1="87" x2="41" y2="2007" gradientUnits="userSpaceOnUse">
<stop stop-color="white" stop-opacity="0.25"/>
<stop offset="1" stop-color="white" stop-opacity="0.07"/>
</linearGradient>
<linearGradient id="paint7_linear" x1="41" y1="97" x2="41" y2="2017" gradientUnits="userSpaceOnUse">
<stop stop-color="white" stop-opacity="0.25"/>
<stop offset="1" stop-color="white" stop-opacity="0.07"/>
</linearGradient>
<linearGradient id="paint8_linear" x1="41" y1="1050.5" x2="813" y2="1050.5" gradientUnits="userSpaceOnUse">
<stop stop-color="#1F324E" stop-opacity="0.5"/>
<stop offset="0.516156" stop-color="#755137" stop-opacity="0.5"/>
<stop offset="0.9999" stop-color="#1F324E" stop-opacity="0.5"/>
</linearGradient>
<linearGradient id="paint9_linear" x1="41" y1="1012.5" x2="813" y2="1012.5" gradientUnits="userSpaceOnUse">
<stop stop-color="#1F324E" stop-opacity="0.5"/>
<stop offset="0.516156" stop-color="#755137" stop-opacity="0.5"/>
<stop offset="0.9999" stop-color="#1F324E" stop-opacity="0.5"/>
</linearGradient>
<linearGradient id="paint10_linear" x1="813" y1="780" x2="2013" y2="780" gradientUnits="userSpaceOnUse">
<stop stop-color="#1F324E" stop-opacity="0.5"/>
<stop offset="0.516156" stop-color="#755137" stop-opacity="0.5"/>
<stop offset="0.9999" stop-color="#1F324E" stop-opacity="0.5"/>
</linearGradient>
<linearGradient id="paint11_linear" x1="813" y1="657.5" x2="2618" y2="657.5" gradientUnits="userSpaceOnUse">
<stop stop-color="#1F324E" stop-opacity="0.5"/>
<stop offset="0.516156" stop-color="#755137" stop-opacity="0.5"/>
<stop offset="0.9999" stop-color="#1F324E" stop-opacity="0.5"/>
</linearGradient>
<linearGradient id="paint12_linear" x1="7.5" y1="0" x2="7.5" y2="15" gradientUnits="userSpaceOnUse">
<stop/>
<stop offset="1" stop-color="#FA6800"/>
</linearGradient>
<linearGradient id="paint13_linear" x1="7.5" y1="0" x2="7.5" y2="15" gradientUnits="userSpaceOnUse">
<stop/>
<stop offset="1" stop-color="#FA6800"/>
</linearGradient>
<linearGradient id="paint14_linear" x1="7.5" y1="0" x2="7.5" y2="15" gradientUnits="userSpaceOnUse">
<stop/>
<stop offset="1" stop-color="#FA6800"/>
</linearGradient>
<linearGradient id="paint15_linear" x1="1577.21" y1="1211.84" x2="1347.81" y2="778.102" gradientUnits="userSpaceOnUse">
<stop stop-color="#FA6800" stop-opacity="0.25"/>
<stop offset="0.991458" stop-color="#1F324E" stop-opacity="0.5"/>
</linearGradient>
<linearGradient id="paint16_linear" x1="1638.11" y1="565.56" x2="1710.29" y2="1060.35" gradientUnits="userSpaceOnUse">
<stop stop-color="#FA6800" stop-opacity="0.25"/>
<stop offset="0.991458" stop-color="#1F324E" stop-opacity="0.5"/>
</linearGradient>
<linearGradient id="paint17_linear" x1="1114.33" y1="1002.63" x2="1114.33" y2="1027.63" gradientUnits="userSpaceOnUse">
<stop stop-color="#FA6800"/>
<stop offset="1" stop-color="#1F324E"/>
</linearGradient>
<linearGradient id="paint18_linear" x1="1150.47" y1="998.89" x2="1150.47" y2="1028.89" gradientUnits="userSpaceOnUse">
<stop stop-color="#FA6800"/>
<stop offset="1" stop-color="#1F324E"/>
</linearGradient>
<linearGradient id="paint19_linear" x1="1196.2" y1="996.744" x2="1196.2" y2="1031.74" gradientUnits="userSpaceOnUse">
<stop stop-color="#FA6800"/>
<stop offset="1" stop-color="#1F324E"/>
</linearGradient>
<linearGradient id="paint20_linear" x1="15" y1="0" x2="15" y2="30" gradientUnits="userSpaceOnUse">
<stop stop-color="#FA6800"/>
<stop offset="1" stop-color="#1F324E"/>
</linearGradient>
<linearGradient id="paint21_linear" x1="1921" y1="747" x2="1921" y2="777" gradientUnits="userSpaceOnUse">
<stop stop-color="#FA6800"/>
<stop offset="1" stop-color="#1F324E"/>
</linearGradient>
<linearGradient id="paint22_linear" x1="1497" y1="791" x2="1497" y2="871" gradientUnits="userSpaceOnUse">
<stop stop-color="#FA6800"/>
<stop offset="1" stop-color="#1F324E"/>
</linearGradient>
<linearGradient id="paint23_linear" x1="1497" y1="791" x2="1497" y2="871" gradientUnits="userSpaceOnUse">
<stop stop-color="#FA6800"/>
<stop offset="1" stop-color="#1F324E"/>
</linearGradient>
<linearGradient id="paint24_linear" x1="961" y1="230" x2="961" y2="631.451" gradientUnits="userSpaceOnUse">
<stop stop-color="#FA6800"/>
<stop offset="1" stop-color="#1F324E"/>
</linearGradient>
<linearGradient id="paint25_linear" x1="961" y1="210" x2="961" y2="611.451" gradientUnits="userSpaceOnUse">
<stop stop-color="#FA6800"/>
<stop offset="1" stop-color="#1F324E"/>
</linearGradient>
<linearGradient id="paint26_linear" x1="961" y1="190" x2="961" y2="591.451" gradientUnits="userSpaceOnUse">
<stop stop-color="#FA6800"/>
<stop offset="1" stop-color="#1F324E"/>
</linearGradient>
<linearGradient id="paint27_linear" x1="961" y1="170" x2="961" y2="571.451" gradientUnits="userSpaceOnUse">
<stop stop-color="#FA6800"/>
<stop offset="1" stop-color="#1F324E"/>
</linearGradient>
<linearGradient id="paint28_linear" x1="961" y1="150" x2="961" y2="551.451" gradientUnits="userSpaceOnUse">
<stop stop-color="#FA6800"/>
<stop offset="1" stop-color="#1F324E"/>
</linearGradient>
<linearGradient id="paint29_linear" x1="961" y1="130" x2="961" y2="531.451" gradientUnits="userSpaceOnUse">
<stop stop-color="#FA6800"/>
<stop offset="1" stop-color="#1F324E"/>
</linearGradient>
<linearGradient id="paint30_linear" x1="961" y1="110" x2="961" y2="511.451" gradientUnits="userSpaceOnUse">
<stop stop-color="#FA6800"/>
<stop offset="1" stop-color="#1F324E"/>
</linearGradient>
<linearGradient id="paint31_linear" x1="961" y1="90" x2="961" y2="491.451" gradientUnits="userSpaceOnUse">
<stop stop-color="#FA6800"/>
<stop offset="1" stop-color="#1F324E"/>
</linearGradient>
<linearGradient id="paint32_linear" x1="961" y1="70" x2="961" y2="471.451" gradientUnits="userSpaceOnUse">
<stop stop-color="#FA6800"/>
<stop offset="1" stop-color="#1F324E"/>
</linearGradient>
<linearGradient id="paint33_linear" x1="961" y1="50" x2="961" y2="451.451" gradientUnits="userSpaceOnUse">
<stop stop-color="#FA6800"/>
<stop offset="1" stop-color="#1F324E"/>
</linearGradient>
<linearGradient id="paint34_linear" x1="961" y1="30" x2="961" y2="431.451" gradientUnits="userSpaceOnUse">
<stop stop-color="#FA6800"/>
<stop offset="1" stop-color="#1F324E"/>
</linearGradient>
<linearGradient id="paint35_linear" x1="1620" y1="56" x2="1620" y2="136" gradientUnits="userSpaceOnUse">
<stop stop-color="#FA6800"/>
<stop offset="1" stop-color="#1F324E"/>
</linearGradient>
<linearGradient id="paint36_linear" x1="1830" y1="141" x2="1830" y2="241" gradientUnits="userSpaceOnUse">
<stop stop-color="#FA6800"/>
<stop offset="1" stop-color="#1F324E"/>
</linearGradient>
<linearGradient id="paint37_linear" x1="1830" y1="141" x2="1830" y2="241" gradientUnits="userSpaceOnUse">
<stop stop-color="#FA6800"/>
<stop offset="1" stop-color="#1F324E"/>
</linearGradient>
<linearGradient id="paint38_linear" x1="397" y1="451" x2="397" y2="551" gradientUnits="userSpaceOnUse">
<stop stop-color="#FA6800"/>
<stop offset="1" stop-color="#1F324E"/>
</linearGradient>
<linearGradient id="paint39_linear" x1="397" y1="451" x2="397" y2="551" gradientUnits="userSpaceOnUse">
<stop stop-color="#FA6800"/>
<stop offset="1" stop-color="#1F324E"/>
</linearGradient>
<linearGradient id="paint40_linear" x1="172" y1="354" x2="172" y2="414" gradientUnits="userSpaceOnUse">
<stop stop-color="#FA6800"/>
<stop offset="1" stop-color="#1F324E"/>
</linearGradient>
<linearGradient id="paint41_linear" x1="172" y1="354" x2="172" y2="414" gradientUnits="userSpaceOnUse">
<stop stop-color="#FA6800"/>
<stop offset="1" stop-color="#1F324E"/>
</linearGradient>
<linearGradient id="paint42_linear" x1="1000" y1="183" x2="1000" y2="733" gradientUnits="userSpaceOnUse">
<stop stop-color="#1F324E" stop-opacity="0.9"/>
<stop offset="1" stop-color="#1F324E" stop-opacity="0.05"/>
</linearGradient>
<radialGradient id="paint43_radial" cx="0" cy="0" r="1" gradientUnits="userSpaceOnUse" gradientTransform="translate(428 70) rotate(-90) scale(30)">
<stop stop-color="#FA6800"/>
<stop offset="1" stop-color="#1F324E"/>
</radialGradient>
<linearGradient id="paint44_linear" x1="459" y1="147" x2="459" y2="159" gradientUnits="userSpaceOnUse">
<stop stop-color="#FA6800"/>
<stop offset="1" stop-color="#1F324E"/>
</linearGradient>
<linearGradient id="paint45_linear" x1="6" y1="0" x2="6" y2="12" gradientUnits="userSpaceOnUse">
<stop stop-color="#FA6800"/>
<stop offset="1" stop-color="#1F324E"/>
</linearGradient>
<clipPath id="clip0">
<rect width="2000" height="1080" fill="white"/>
</clipPath>
<clipPath id="clip1">
<rect width="1920" height="1080" fill="white" transform="translate(41)"/>
</clipPath>
</defs>
</svg>
